# xmcd CD database file
#
# Track frame offsets:
#	150
#	15783
#	31986
#	47395
#	64766
#	82972
#	94370
#	109709
#	123021
#	140122
#	155980
#	173895
#
# Disc length: 2519 seconds
#
# Revision: 0
# Processed by: cddbd v1.5.2PL0 Copyright (c) Steve Scherf et al.
# Submitted via: CDex 1.51
#
DISCID=9309d50c
DTITLE=Américo - yo sé
DYEAR=2011
DGENRE=Salsa
TTITLE0=te eché al olvido
TTITLE1=siento que te vas
TTITLE2=olvidarla nunca
TTITLE3=yo sé
TTITLE4=quédate
TTITLE5=amor se escribe con llanto
TTITLE6=no puedo olvidarte
TTITLE7=triste canción
TTITLE8=nada es para siempre
TTITLE9=el sol se apagó
TTITLE10=tu lloras por el
TTITLE11=amor de una noche
EXTD=YEAR: 2011
EXTT0=
EXTT1=
EXTT2=
EXTT3=
EXTT4=
EXTT5=
EXTT6=
EXTT7=
EXTT8=
EXTT9=
EXTT10=
EXTT11=
PLAYORDER=
